<?xml version="1.0" standalone="no"?>
<!DOCTYPE svg PUBLIC "-//W3C//DTD SVG 20010904//EN"
 "http://www.w3.org/TR/2001/REC-SVG-20010904/DTD/svg10.dtd">
<svg version="1.0" xmlns="http://www.w3.org/2000/svg"
 width="512.000000pt" height="512.000000pt" viewBox="0 0 512.000000 512.000000"
 preserveAspectRatio="xMidYMid meet">

<g transform="translate(0.000000,512.000000) scale(0.100000,-0.100000)"
fill="#000000" stroke="none">
<path d="M2330 5105 c-442 -58 -830 -251 -1135 -566 -195 -201 -330 -410 -426
-658 -232 -601 -137 -1299 246 -1816 158 -214 333 -369 594 -530 116 -71 196
-151 244 -243 60 -114 67 -157 67 -417 0 -251 9 -328 45 -391 34 -58 105 -120
163 -140 l51 -18 21 -88 c27 -109 64 -167 127 -205 l48 -28 185 0 185 0 48 28
c63 38 100 96 127 205 l21 88 51 18 c58 20 129 82 163 140 36 63 45 140 45
391 0 260 7 303 66 416 50 96 131 173 267 258 268 166 463 350 619 587 332
500 414 1106 227 1669 -224 672 -785 1156 -1489 1285 -150 27 -414 35 -560 15z
m510 -159 c258 -43 490 -134 696 -273 416 -280 693 -710 768 -1193 57 -371 6
-712 -159 -1058 l-54 -112 -140 0 c-128 0 -143 -2 -161 -20 -22 -22 -26 -60
-10 -90 14 -26 63 -40 136 -40 35 0 64 -3 64 -6 0 -15 -106 -137 -192 -220
-111 -108 -182 -162 -331 -256 -138 -87 -207 -145 -264 -222 -69 -93 -111
-191 -138 -318 l-5 -28 -489 0 -488 0 -21 85 c-25 99 -62 176 -125 261 -59 81
-129 140 -265 224 -62 38 -140 90 -175 116 -83 64 -226 203 -299 291 l-59 73
1210 2 1210 3 22 22 c27 27 29 75 4 103 -18 19 -30 20 -477 20 l-458 0 0 193
0 193 49 48 49 49 64 -5 c374 -28 764 211 938 573 77 161 111 342 92 487 -7
45 -16 91 -22 102 -16 30 -84 44 -210 44 -406 -2 -779 -276 -923 -680 -36
-101 -49 -182 -49 -310 l0 -112 -34 -33 -34 -33 -34 33 -34 33 0 112 c0 128
-13 209 -49 310 -118 330 -387 575 -723 658 -99 25 -288 30 -358 9 -54 -15
-68 -44 -77 -162 -12 -147 27 -324 105 -479 176 -349 563 -579 928 -552 l64 5
49 -49 49 -48 0 -193 0 -193 -197 0 c-109 0 -437 3 -730 7 l-532 6 -54 116
c-214 453 -230 955 -47 1415 210 531 703 952 1255 1072 204 45 469 53 665 20z
m-1225 -1111 c261 -26 525 -224 650 -486 38 -81 75 -212 75 -268 0 -35 -2 -33
-218 182 -120 119 -225 217 -235 217 -45 0 -87 -42 -87 -87 0 -10 98 -115 217
-235 215 -216 217 -218 182 -218 -56 0 -187 37 -268 75 -309 147 -499 449
-492 782 1 41 2 42 39 45 20 2 46 3 57 2 11 -2 47 -5 80 -9z m2063 0 c2 -2 3
-41 3 -86 -1 -297 -203 -597 -492 -734 -81 -38 -212 -75 -268 -75 -35 0 -33 2
182 218 119 120 217 225 217 235 0 45 -42 87 -87 87 -10 0 -115 -98 -235 -217
-216 -215 -218 -217 -218 -182 0 20 9 71 20 115 87 340 386 606 722 642 63 7
146 5 156 -3z m-638 -2960 l0 -85 -293 0 c-317 0 -328 -2 -341 -55 -7 -27 7
-62 33 -82 12 -9 95 -12 310 -13 l294 0 -6 -37 c-8 -46 -34 -82 -78 -108 -32
-19 -52 -20 -399 -20 -347 0 -367 1 -399 20 -44 26 -70 62 -78 108 l-6 37 54
0 c59 1 83 13 98 51 11 30 -8 83 -34 93 -9 3 -39 6 -66 6 l-49 0 0 85 0 85
480 0 480 0 0 -85z m-264 -572 c-3 -10 -10 -36 -16 -58 -21 -81 -51 -95 -200
-95 -149 0 -179 14 -200 95 -6 22 -13 48 -16 58 -5 16 10 17 216 17 206 0 221
-1 216 -17z"/>
<path d="M2108 1973 c-32 -37 -29 -57 21 -161 53 -107 83 -139 123 -127 39 12
58 36 58 72 0 36 -68 181 -100 213 -25 25 -81 26 -102 3z"/>
<path d="M2511 1971 c-26 -26 -35 -76 -29 -168 6 -86 26 -116 78 -116 52 0 72
30 78 116 8 131 -15 187 -78 187 -16 0 -39 -9 -49 -19z"/>
<path d="M2910 1970 c-32 -32 -100 -177 -100 -213 0 -56 61 -92 106 -63 30 21
117 191 116 230 0 15 -8 37 -18 47 -23 25 -78 25 -104 -1z"/>
</g>
</svg>
